# xmcd
#
# Track frame offsets: 
#        150
#        11383
#        33303
#        52765
#        70557
#        90118
#        109318
#        127693
#        145255
#        164826
#        182827
#        193917
#        198211
#        228581
#
# Disc length: 3193 seconds
#
# Revision: 0
# Processed by: cddbd v1.5.1PL2 Copyright (c) Steve Scherf et al.
# Submitted via: ExactAudioCopy v0.95b3
#
DISCID=b10c770e
DTITLE=E-White - 48 Hours - The White Album
DYEAR=2004
DGENRE=Rap
TTITLE0=Intro
TTITLE1=Life's A Biyaach (feat. Cigar Lee)
TTITLE2=Same Shit Different Day (feat. XL Middleton and Foesum)
TTITLE3=Put Yo Handz Up
TTITLE4=In The Middle Of The Night (feat. Mnmsta and Kam)
TTITLE5=Life In The Big City
TTITLE6=Ghetto Luv
TTITLE7=My Time To Shine
TTITLE8=Street Life (feat. Bam and REALM)
TTITLE9=Nuthin' But Luv (feat. The Family)
TTITLE10=U Don't Want None (feat. Bo-Rocc)
TTITLE11=All In The Family 2004
TTITLE12=All In The Family (feat. Foesum, The Twinz, Rick D., Cigar Le
TTITLE12=e, and Breeze)
TTITLE13=Outro
EXTD=
EXTT0=
EXTT1=
EXTT2=
EXTT3=
EXTT4=
EXTT5=
EXTT6=
EXTT7=
EXTT8=
EXTT9=
EXTT10=
EXTT11=
EXTT12=
EXTT13=
PLAYORDER=
